<?xml version="1.0" encoding="UTF-8"?>
<svg version="1.1" xmlns="http://www.w3.org/2000/svg" width="2449" height="2309">
<path d="M0,0 L12,6 L36,20 L64,36 L90,51 L116,66 L144,82 L168,96 L196,112 L222,127 L248,142 L274,157 L302,173 L326,187 L354,203 L380,218 L406,233 L434,249 L458,263 L486,279 L512,294 L538,309 L566,325 L590,339 L618,355 L644,370 L670,385 L674,389 L664,407 L650,431 L635,457 L631,457 L606,443 L582,429 L554,413 L530,399 L502,383 L476,368 L450,353 L422,337 L398,323 L370,307 L344,292 L318,277 L292,262 L264,246 L240,232 L212,216 L186,201 L160,186 L132,170 L108,156 L80,140 L54,125 L28,110 L2,95 L-3,96 L-27,110 L-55,126 L-81,141 L-107,156 L-135,172 L-159,186 L-187,202 L-213,217 L-239,232 L-267,248 L-291,262 L-319,278 L-345,293 L-371,308 L-399,324 L-423,338 L-451,354 L-477,369 L-503,384 L-529,399 L-557,415 L-581,429 L-609,445 L-611,446 L-612,1152 L-606,1154 L-582,1168 L-556,1183 L-528,1199 L-504,1213 L-476,1229 L-450,1244 L-424,1259 L-396,1275 L-372,1289 L-344,1305 L-318,1320 L-292,1335 L-264,1351 L-240,1365 L-212,1381 L-186,1396 L-160,1411 L-132,1427 L-108,1441 L-80,1457 L-54,1472 L-28,1487 L0,1503 L12,1497 L36,1483 L64,1467 L90,1452 L116,1437 L142,1422 L170,1406 L194,1392 L222,1376 L248,1361 L274,1346 L302,1330 L326,1316 L354,1300 L380,1285 L406,1270 L434,1254 L458,1240 L486,1224 L512,1209 L538,1194 L564,1179 L592,1163 L616,1149 L632,1140 L635,1140 L650,1167 L660,1184 L674,1208 L673,1211 L648,1225 L624,1239 L596,1255 L572,1269 L544,1285 L518,1300 L492,1315 L464,1331 L440,1345 L412,1361 L386,1376 L360,1391 L332,1407 L308,1421 L280,1437 L254,1452 L228,1467 L202,1482 L174,1498 L150,1512 L122,1528 L96,1543 L70,1558 L42,1574 L18,1588 L2,1597 L-3,1596 L-31,1580 L-57,1565 L-83,1550 L-111,1534 L-135,1520 L-163,1504 L-189,1489 L-215,1474 L-243,1458 L-267,1444 L-295,1428 L-321,1413 L-347,1398 L-375,1382 L-399,1368 L-427,1352 L-453,1337 L-479,1322 L-505,1307 L-533,1291 L-557,1277 L-585,1261 L-611,1246 L-637,1231 L-665,1215 L-689,1201 L-693,1199 L-693,399 L-669,385 L-641,369 L-615,354 L-589,339 L-561,323 L-537,309 L-509,293 L-483,278 L-457,263 L-429,247 L-405,233 L-377,217 L-351,202 L-325,187 L-299,172 L-271,156 L-247,142 L-219,126 L-193,111 L-167,96 L-139,80 L-115,66 L-87,50 L-61,35 L-35,20 L-7,4 Z " fill="#291166" transform="translate(1224,369)"/>
<path d="M0,0 L2,0 L2,568 L-2,567 L-27,553 L-44,543 L-70,528 L-96,513 L-122,498 L-148,483 L-172,469 L-200,453 L-224,439 L-250,424 L-276,409 L-302,394 L-328,379 L-354,364 L-380,349 L-406,334 L-432,319 L-458,304 L-484,289 L-491,285 L-487,281 L-459,265 L-433,250 L-407,235 L-381,220 L-355,205 L-329,190 L-305,176 L-277,160 L-253,146 L-227,131 L-201,116 L-175,101 L-149,86 L-123,71 L-97,56 L-71,41 L-45,26 L-19,11 Z " fill="#291166" transform="translate(1195,550)"/>
<path d="M0,0 L2,0 L2,568 L-3,566 L-26,553 L-50,539 L-76,524 L-102,509 L-128,494 L-154,479 L-180,464 L-206,449 L-232,434 L-258,419 L-284,404 L-310,389 L-334,375 L-362,359 L-386,345 L-412,330 L-438,315 L-464,300 L-490,285 L-489,282 L-461,266 L-435,251 L-409,236 L-383,221 L-359,207 L-331,191 L-307,177 L-281,162 L-255,147 L-229,132 L-203,117 L-177,102 L-151,87 L-125,72 L-99,57 L-73,42 L-47,27 L-21,12 Z " fill="#DE9E2E" transform="translate(1750,892)"/>
<path d="M0,0 L3,0 L3,101 L0,567 L-5,566 L-34,549 L-63,532 L-92,515 L-116,501 L-145,484 L-174,467 L-203,450 L-232,433 L-261,416 L-290,399 L-319,382 L-348,365 L-372,351 L-401,334 L-430,317 L-459,300 L-488,283 L-491,280 L-478,272 L-451,257 L-427,243 L-400,228 L-376,214 L-349,199 L-325,185 L-298,170 L-274,156 L-249,142 L-221,126 L-193,110 L-168,96 L-144,82 L-117,67 L-93,53 L-66,38 L-42,24 L-15,9 Z " fill="#189179" transform="translate(1189,1223)"/>
<path d="M0,0 L5,2 L32,17 L53,29 L76,42 L104,58 L129,72 L157,88 L182,102 L206,116 L228,128 L249,140 L272,153 L300,169 L325,183 L353,199 L378,213 L402,227 L424,239 L445,251 L468,264 L491,277 L494,279 L493,282 L472,294 L450,307 L428,320 L399,337 L377,350 L348,367 L326,380 L297,397 L275,410 L246,427 L224,440 L202,453 L173,470 L151,483 L122,500 L100,513 L71,530 L49,543 L20,560 L7,568 L5,568 L4,547 L0,66 Z " fill="#291166" transform="translate(1244,1224)"/>
<path d="M0,0 L5,2 L27,14 L51,28 L73,40 L94,52 L117,65 L145,81 L170,95 L194,109 L216,121 L237,133 L260,146 L288,162 L313,176 L341,192 L366,206 L390,220 L412,232 L433,244 L456,257 L484,273 L495,279 L495,281 L469,296 L447,309 L418,326 L396,339 L367,356 L345,369 L316,386 L294,399 L265,416 L238,432 L209,449 L187,462 L158,479 L136,492 L107,509 L85,522 L56,539 L34,552 L12,565 L7,568 L5,568 L4,507 L0,26 Z " fill="#189179" transform="translate(1243,550)"/>
<path d="M0,0 L5,2 L33,18 L57,32 L85,48 L109,62 L135,77 L161,92 L187,107 L213,122 L239,137 L265,152 L291,167 L317,182 L343,197 L369,212 L393,226 L421,242 L445,256 L471,271 L492,283 L492,285 L464,301 L438,316 L412,331 L386,346 L362,360 L334,376 L310,390 L284,405 L258,420 L232,435 L206,450 L180,465 L154,480 L128,495 L102,510 L76,525 L50,540 L26,554 L2,568 L0,568 Z " fill="#DE9E2E" transform="translate(682,888)"/>
</svg>
